HIERARCHY
ROOT Hips
{
	OFFSET 0.00000 0.00000 0.00000
	CHANNELS 6 Xposition Yposition Zposition Zrotation Yrotation Xrotation 
	JOINT LHipJoint
	{
		OFFSET 0 0 0
		CHANNELS 3 Zrotation Yrotation Xrotation
		JOINT LeftHip
		{
			OFFSET 1.38615 -1.80049 0.80104
			CHANNELS 3 Zrotation Yrotation Xrotation
			JOINT LeftKnee
			{
				OFFSET 2.50172 -6.87341 0.00000
				CHANNELS 3 Zrotation Yrotation Xrotation
				JOINT LeftAnkle
				{
					OFFSET 2.67523 -7.35014 0.00000
					CHANNELS 3 Zrotation Yrotation Xrotation
					JOINT LeftToe
					{
						OFFSET 0.17446 -0.47932 2.13155
						CHANNELS 3 Zrotation Yrotation Xrotation
						End Site
						{
							OFFSET 0.00000 -0.00000 1.10023
						}
					}
				}
			}
		}
	}
	JOINT RHipJoint
	{
		OFFSET 0 0 0
		CHANNELS 3 Zrotation Yrotation Xrotation
		JOINT RightHip
		{
			OFFSET -1.18047 -1.80049 0.80104
			CHANNELS 3 Zrotation Yrotation Xrotation
			JOINT RightKnee
			{
				OFFSET -2.59789 -7.13765 0.00000
				CHANNELS 3 Zrotation Yrotation Xrotation
				JOINT RightAnkle
				{
					OFFSET -2.62125 -7.20183 0.00000
					CHANNELS 3 Zrotation Yrotation Xrotation
					JOINT RightToe
					{
						OFFSET -0.31287 -0.85960 2.07814
						CHANNELS 3 Zrotation Yrotation Xrotation
						End Site
						{
							OFFSET -0.00000 -0.00000 1.11766
						}
					}
				}
			}
		}
	}
	JOINT lowerback
	{
		OFFSET 0 0 0
		CHANNELS 3 Zrotation Yrotation Xrotation
		JOINT Chest
		{
			OFFSET -0.01587 2.16157 -0.12309
			CHANNELS 3 Zrotation Yrotation Xrotation
			JOINT Chest2
			{
				OFFSET 0.04727 2.16674 -0.03569
				CHANNELS 3 Zrotation Yrotation Xrotation
				JOINT lowerneck
				{
					OFFSET 0 0 0
					CHANNELS 3 Zrotation Yrotation Xrotation
					JOINT Neck
					{
						OFFSET -0.08586 1.60335 0.32783
						CHANNELS 3 Zrotation Yrotation Xrotation
						JOINT Head
						{
							OFFSET 0.07583 1.65857 -0.31618
							CHANNELS 3 Zrotation Yrotation Xrotation
							End Site
							{
								OFFSET 0.03386 1.69434 -0.14584
							}
						}
					}
				}
				JOINT LeftCollar
				{
					OFFSET 0 0 0
					CHANNELS 3 Zrotation Yrotation Xrotation
					JOINT LeftShoulder
					{
						OFFSET 3.17393 1.01901 -0.52897
CHANNELS 3 Zrotation Xrotation Yrotation
						JOINT LeftElbow
						{
OFFSET 0 -5.252870 -0.000000
CHANNELS 3 Zrotation Xrotation Yrotation
							JOINT LeftWrist
							{
OFFSET 0 -3.510140 0.000000
CHANNELS 3 Zrotation Xrotation Yrotation
								JOINT lhand
								{
									OFFSET 0 0 0
CHANNELS 3 Zrotation Xrotation Yrotation
									JOINT LFingers
									{
OFFSET 0 -0.706180 -0.000000
CHANNELS 3 Zrotation Xrotation Yrotation
										End Site
										{
OFFSET 0 -0.569340 -0.000000
										}
									}
								}
								JOINT LThumb
								{
OFFSET 0 0.000000 0.000000
CHANNELS 3 Zrotation Xrotation Yrotation
									End Site
									{
OFFSET 0 -0.578030 0.578030
									}
								}
							}
						}
					}
				}
				JOINT RightCollar
				{
					OFFSET 0 0 0
					CHANNELS 3 Zrotation Yrotation Xrotation
					JOINT RightShoulder
					{
						OFFSET -2.99471 1.26495 -0.61125
CHANNELS 3 Zrotation Xrotation Yrotation
						JOINT RightElbow
						{
OFFSET 0 -5.287210 -0.000000
CHANNELS 3 Zrotation Xrotation Yrotation
							JOINT RightWrist
							{
OFFSET 0 -3.505440 0.000000
CHANNELS 3 Zrotation Xrotation Yrotation
								JOINT rhand
								{
									OFFSET 0 0 0
CHANNELS 3 Zrotation Xrotation Yrotation
									JOINT RFingers
									{
OFFSET 0 -0.885000 -0.000000
CHANNELS 3 Zrotation Xrotation Yrotation
										End Site
										{
OFFSET 0 -0.713510 -0.000000
										}
									}
								}
								JOINT RThumb
								{
OFFSET 0 0.000000 0.000000
CHANNELS 3 Zrotation Xrotation Yrotation
									End Site
									{
OFFSET 0 -0.724400 0.724400
									}
								}
							}
						}
					}
				}
			}
		}
	}
}
MOTION
Frames: 4
Frame Time: 0.008333333333333333
-3.146412 18.518025 14.098569 -1.220381 27.098743 -0.501835 0.000000 0.000000 0.000000 -10.006306 -11.397783 -16.224235 9.109901 16.877956 56.469480 -0.149178 -6.849310 2.031731 0.949604 -6.200837 -17.369977 0.000000 0.000000 0.000000 23.238220 -4.393182 -10.620799 -1.493492 -7.719997 21.866916 -0.661499 -4.400478 -17.589436 -0.175233 2.695508 -7.432241 1.289819 5.338554 1.929371 3.922423 7.090435 3.463606 3.298791 3.541772 2.146745 3.505796 17.180737 -11.729844 -3.854616 26.282661 31.221186 2.073799 11.711062 13.488507 0.000000 0.000000 0.000000 -3.497372 -5.136291 0.033339 9.131366 -15.369335 1.234849 1.591502 27.838221 -40.444421 0.000000 0.000000 0.000000 -7.125000 0.000000 0.000000 -44.098187 65.146537 23.518618 0.000000 0.000000 0.000000 -4.891886 -14.402901 22.792347 -18.087374 -28.268268 -4.590824 -19.854119 -6.272328 -11.871374 0.000000 0.000000 0.000000 7.125000 0.000000 0.000000 5.113200 17.412188 3.362160
-3.142235 18.518476 14.127507 -1.353142 27.018630 -0.532306 0.000000 0.000000 0.000000 -9.881117 -11.437148 -16.434105 9.092502 16.866867 56.409440 -0.141335 -6.693531 1.708392 0.888813 -5.999111 -16.784932 0.000000 0.000000 0.000000 23.399859 -4.408147 -10.553998 -1.489675 -7.710591 21.838549 -0.666698 -4.350234 -17.614107 -0.167300 2.633124 -7.259122 1.414858 5.348861 1.876513 3.955869 7.102305 3.459219 3.270574 3.549915 2.182234 3.477188 17.159612 -11.825133 -3.807648 26.242184 31.246157 2.096998 11.689787 13.503322 0.000000 0.000000 0.000000 -3.547315 -5.077272 0.212017 9.037099 -15.219205 1.210148 1.341305 27.923263 -40.721663 0.000000 0.000000 0.000000 -7.125000 0.000000 0.000000 -44.766561 65.269412 24.068054 0.000000 0.000000 0.000000 -4.952857 -14.626504 23.076440 -18.236723 -28.458004 -4.662073 -19.690556 -6.437784 -11.852322 0.000000 0.000000 0.000000 7.125000 0.000000 0.000000 5.226999 17.445964 3.433679
-3.138058 18.518927 14.156446 -1.485903 26.938516 -0.562777 0.000000 0.000000 0.000000 -9.755928 -11.476514 -16.643974 9.075103 16.855779 56.349400 -0.133492 -6.537751 1.385053 0.828022 -5.797384 -16.199887 0.000000 0.000000 0.000000 23.561498 -4.423112 -10.487197 -1.485859 -7.701186 21.810182 -0.671897 -4.299991 -17.638778 -0.159367 2.570740 -7.086004 1.539896 5.359168 1.823655 3.989314 7.114174 3.454832 3.242357 3.558059 2.217723 3.448581 17.138487 -11.920422 -3.760679 26.201706 31.271129 2.120197 11.668511 13.518137 0.000000 0.000000 0.000000 -3.597258 -5.018254 0.390694 8.942832 -15.069074 1.185447 1.091108 28.008304 -40.998905 0.000000 0.000000 0.000000 -7.125000 0.000000 0.000000 -45.434935 65.392287 24.617489 0.000000 0.000000 0.000000 -5.013829 -14.850107 23.360534 -18.386072 -28.647741 -4.733322 -19.526993 -6.603239 -11.833271 0.000000 0.000000 0.000000 7.125000 0.000000 0.000000 5.340799 17.479741 3.505198
-3.133467 18.518907 14.185187 -1.603563 26.861896 -0.591100 0.000000 0.000000 0.000000 -9.650509 -11.521609 -16.844022 9.055059 16.842972 56.280199 -0.125768 -6.389952 1.060793 0.771604 -5.607893 -15.650981 0.000000 0.000000 0.000000 23.705262 -4.449370 -10.419862 -1.483036 -7.694228 21.789189 -0.678953 -4.238273 -17.676501 -0.153747 2.526625 -6.963572 1.662678 5.376581 1.788594 4.012410 7.136560 3.441621 3.202191 3.571549 2.234860 3.433092 17.114158 -12.007208 -3.708189 26.155060 31.310203 2.142852 11.646273 13.538132 0.000000 0.000000 0.000000 -3.637751 -4.951452 0.573559 8.841656 -14.907678 1.159173 0.895287 28.140633 -41.210566 0.000000 0.000000 0.000000 -7.125000 0.000000 0.000000 -45.949422 65.484866 25.038009 0.000000 0.000000 0.000000 -5.068404 -15.055710 23.619118 -18.533020 -28.834015 -4.803634 -19.387030 -6.765274 -11.816284 0.000000 0.000000 0.000000 7.125000 0.000000 0.000000 5.438167 17.509351 3.566294
